<svg width="11" height="13" viewBox="0 0 11 13" fill="none" xmlns="http://www.w3.org/2000/svg">
<path fill-rule="evenodd" clip-rule="evenodd" d="M5.65088 0.616211C4.28861 0.616211 3.18424 1.72058 3.18424 3.08288V3.94954H1.25091C0.845905 3.94954 0.517578 4.27787 0.517578 4.68288V11.4829C0.517578 11.8879 0.845905 12.2162 1.25091 12.2162H10.0509C10.4559 12.2162 10.7842 11.8879 10.7842 11.4829V4.68288C10.7842 4.27787 10.4559 3.94954 10.0509 3.94954H8.11755V3.08288C8.11755 1.72058 7.01321 0.616211 5.65088 0.616211ZM7.18421 4.88288V5.74954C7.18421 6.00728 7.39315 6.21621 7.65088 6.21621C7.90861 6.21621 8.11755 6.00728 8.11755 5.74954V4.88288H9.85088V11.2829H1.45091V4.88288H3.18424V5.74954C3.18424 6.00728 3.39318 6.21621 3.65091 6.21621C3.90864 6.21621 4.11758 6.00728 4.11758 5.74954V4.88288H7.18421ZM7.18421 3.94954V3.08288C7.18421 2.23604 6.49775 1.54954 5.65088 1.54954C4.80408 1.54954 4.11758 2.23604 4.11758 3.08288V3.94954H7.18421Z" fill="#33383C"/>
</svg>
