<svg width="1024" height="768" viewBox="0 0 1024 768" fill="none" xmlns="http://www.w3.org/2000/svg">
<path d="M468.66 214.12C468.66 215.28 467.75 216.24 466.59 216.29C459.42 216.59 436.03 219.85 434.76 249.24C433.49 278.63 434.37 307.61 434.67 315.73C434.72 316.96 433.73 317.97 432.5 317.97H404.44C403.24 317.97 402.27 317 402.27 315.8V248.87C402.27 248.87 401.55 216.43 365.4 216.23C364.14 216.23 363.14 215.14 363.25 213.88C363.35 212.76 364.29 211.89 365.42 211.89H466.5C467.7 211.89 468.67 212.86 468.67 214.06V214.12H468.66Z" fill="black"/>
<path d="M403.87 333.29H432.02C433.22 333.29 434.19 334.26 434.19 335.46L433.82 609.78C433.82 610.98 432.85 611.95 431.65 611.95H368.58C367.45 611.95 366.51 611.08 366.42 609.96C366.31 608.68 367.33 607.58 368.62 607.61C376.77 607.78 402.76 605.69 402.44 571.98C402.09 534.47 401.74 357.13 401.7 335.46C401.7 334.26 402.67 333.29 403.87 333.29Z" fill="black"/>
<path d="M453.43 606.45C453.43 605.16 454.48 604.13 455.77 604.16C471.59 604.5 562.76 606.27 577.07 601.49C592.62 596.31 633.11 576.45 654.2 522.64C654.54 521.76 655.39 521.17 656.33 521.17C657.82 521.17 658.91 522.56 658.56 524.01L637.64 610.19C637.39 611.22 636.47 611.94 635.41 611.94H455.73C454.46 611.94 453.44 610.91 453.44 609.65V606.45H453.43Z" fill="black"/>
<path d="M395.37 414.739L396.65 463.099C396.65 463.249 396.63 463.399 396.59 463.539C395.29 467.469 376.51 525.669 394.96 548.139C395.15 548.379 395.26 548.659 395.26 548.959C395.25 551.929 395.15 556.319 395.07 559.289C395.04 560.489 393.55 561.039 392.76 560.129C382.56 548.549 342.84 495.169 392.92 414.079C393.61 412.959 395.34 413.419 395.37 414.739Z" fill="black"/>
<path d="M614.9 426.49C614.18 414.56 612.66 397.74 592.21 392.31C567.33 385.71 533.61 395.56 497.7 431.91C434.28 496.09 436.77 566.83 436.81 578.71C436.96 617.02 445.39 638.59 454.66 650.86C462.9 661.77 475.73 668.03 489.39 668.35C535.78 669.41 554.85 617.56 554.85 617.56L547.01 617.19C531.9 651.92 510.42 658.97 495.68 661.21C490.22 662.04 484.63 661.83 479.32 660.3C440.95 649.21 448.08 592.8 448.77 586.56C496.02 590.4 530.58 572.79 563.63 542.58C599.19 510.08 615.74 440.51 614.9 426.5V426.49ZM605.51 429.78C603.02 474.86 577.63 510.71 564.9 526.66C563.18 528.81 561.29 530.81 559.24 532.66C499.3 586.77 449.51 577.96 449.51 577.96C456.63 516.29 481.53 473.78 508.5 440.53C509.99 438.69 522.63 426.69 524.32 425.03C543.3 406.36 559.99 400.77 571.25 399.47C592.73 397 606.6 410.11 605.51 429.78Z" fill="black"/>
<path d="M553.36 600.04H561.39C561.39 600.04 580.07 528.23 547.2 503.29C543.46 506.18 541.41 507.49 541.41 507.49C541.41 507.49 569.43 518.32 553.36 600.03V600.04Z" fill="black"/>
<path d="M382.12 208.4H449.94C449.94 208.4 453.37 190.59 437.22 181.82C445.15 171.73 451.88 146.24 419.94 144.56C388 142.88 387.61 167.1 395.59 180.13C387.19 183.31 379.08 201.76 382.12 208.4Z" fill="black"/>
<path d="M458.04 169.329C462.629 169.329 466.35 166.697 466.35 163.449C466.35 160.202 462.629 157.569 458.04 157.569C453.45 157.569 449.73 160.202 449.73 163.449C449.73 166.697 453.45 169.329 458.04 169.329Z" fill="black"/>
<path d="M483.38 176.42C487.351 176.42 490.57 174.369 490.57 171.84C490.57 169.31 487.351 167.26 483.38 167.26C479.409 167.26 476.19 169.31 476.19 171.84C476.19 174.369 479.409 176.42 483.38 176.42Z" fill="black"/>
<path d="M473.36 156.08C477.226 156.08 480.36 153.528 480.36 150.38C480.36 147.232 477.226 144.68 473.36 144.68C469.494 144.68 466.36 147.232 466.36 150.38C466.36 153.528 469.494 156.08 473.36 156.08Z" fill="black"/>
<path d="M492.1 165.509C495.347 165.509 497.98 163.732 497.98 161.539C497.98 159.347 495.347 157.569 492.1 157.569C488.853 157.569 486.22 159.347 486.22 161.539C486.22 163.732 488.853 165.509 492.1 165.509Z" fill="black"/>
<path d="M508.63 174.83C511.005 174.83 512.93 173.491 512.93 171.84C512.93 170.188 511.005 168.85 508.63 168.85C506.255 168.85 504.33 170.188 504.33 171.84C504.33 173.491 506.255 174.83 508.63 174.83Z" fill="black"/>
<path d="M504.33 154.769C507.837 154.769 510.68 152.804 510.68 150.379C510.68 147.955 507.837 145.989 504.33 145.989C500.823 145.989 497.98 147.955 497.98 150.379C497.98 152.804 500.823 154.769 504.33 154.769Z" fill="black"/>
<path d="M493.87 207.779C472.13 192.669 455.68 184.629 440.74 180.359C440.56 180.589 440 181.309 439.83 181.719C447.12 184.979 449.67 192.169 450.06 193.399C473.58 202.099 489.06 214.399 489.06 214.399L493.87 207.779Z" fill="black"/>
<path d="M395.24 180.13C395.24 180.13 391.56 182.24 388.38 186.35C410.38 182.77 431.08 186.69 447.93 192.64C447.84 192.61 447.75 192.57 447.66 192.54C444.42 185.63 437.22 181.83 437.22 181.83L438.66 179.8C427.77 176.91 417.59 175.98 406.63 175.69C402.24 175.58 397.85 175.68 393.48 175.99L395.24 180.14V180.13Z" fill="black"/>
<path d="M595.85 223.47C606.84 203.73 607.86 192.61 605.47 184.94C602.92 176.76 594.97 171.54 586.4 171.86C556.06 173.02 531.67 199.35 516.55 221.52C500.15 245.57 496.94 275.31 506.24 301.21C491.68 308.96 477.82 314.48 466.6 317.98C435.65 327.63 401.26 323.26 375.71 316.18C357.29 311.08 340.97 300.01 329.87 284.46C314.28 262.62 317.06 243.58 323.39 229.76C328.49 218.61 336.9 209.32 347.15 202.6C359.96 194.2 372.85 189.31 385.37 186.88C386.75 184.68 389.04 181.82 392.67 179.36C392.49 178.95 391.38 176.86 391.02 176.17C386.08 176.62 381.18 177.37 376.33 178.46C328.35 189.24 314.79 219.69 310.73 241.62C309.07 250.59 309.09 259.83 311.19 268.71C320.06 306.37 355.84 317.65 376.13 324.17C384.99 327.02 394.05 329.2 403.27 330.47C452.5 337.27 485.55 320.24 509.06 308.1C512.15 314.82 516.13 321.2 520.98 327.07C484.54 333.84 449.25 356.11 441.35 361.33C440.32 362.01 439.71 363.15 439.72 364.39C439.74 367.72 439.79 374.88 439.99 382.65C440.02 383.94 441.56 384.59 442.51 383.72C478.97 350.27 507.28 337.68 527.75 334.37C527.86 334.48 527.97 334.59 528.08 334.7C529.5 336.05 530.81 337.2 531.97 338.16C552.97 354.69 568.58 349.95 574.11 345.31C574.91 344.63 575.41 343.64 575.4 342.59C575.34 335.43 567.89 330.12 555.29 326.51C554.68 326.34 554.07 326.16 553.44 326.06C545.31 324.78 536.82 324.88 528.29 325.95C522.68 318.94 518.99 311.63 516.83 304.15C518.7 303.22 520.51 302.35 522.25 301.56C548.77 289.61 577.53 256.36 595.84 223.49L595.85 223.47ZM567.46 341.88C558.8 343.43 549.88 341.37 537.74 333.42C554.5 333.01 564.33 339.08 567.46 341.88ZM527.11 237.66C546.94 201.58 563.86 187.02 576.45 182.63C588.94 178.28 600.87 190.24 596.69 202.79C582.04 246.71 547.82 277.06 515.11 296.24C512.13 276.58 518.45 256.19 527.11 237.65V237.66Z" fill="black"/>
</svg>
