<svg width="2371" height="1778" viewBox="0 0 2371 1778" fill="none" xmlns="http://www.w3.org/2000/svg">
<path d="M1085.15 495.71C1085.15 498.396 1083.04 500.618 1080.36 500.734C1063.75 501.428 1009.6 508.976 1006.66 577.017C1003.72 645.057 1005.75 712.149 1006.45 730.948C1006.56 733.795 1004.27 736.134 1001.42 736.134H936.452C933.674 736.134 931.428 733.888 931.428 731.11V576.16C931.428 576.16 929.761 501.058 846.058 500.595C843.14 500.595 840.825 498.072 841.08 495.154C841.311 492.562 843.488 490.547 846.104 490.547H1080.15C1082.93 490.547 1085.17 492.793 1085.17 495.571V495.71H1085.15Z" fill="#584738"/>
<path d="M935.133 771.601H1000.31C1003.09 771.601 1005.34 773.847 1005.34 776.625L1004.48 1411.7C1004.48 1414.48 1002.23 1416.73 999.455 1416.73H853.421C850.805 1416.73 848.628 1414.71 848.42 1412.12C848.165 1409.16 850.527 1406.61 853.514 1406.68C872.384 1407.07 932.562 1402.24 931.821 1324.19C931.011 1237.35 930.201 826.793 930.108 776.625C930.108 773.847 932.354 771.601 935.133 771.601Z" fill="#584738"/>
<path d="M1049.89 1403.99C1049.89 1401.01 1052.32 1398.62 1055.3 1398.69C1091.93 1399.48 1303.03 1403.58 1336.16 1392.51C1372.17 1380.52 1465.92 1334.54 1514.75 1209.97C1515.54 1207.93 1517.51 1206.56 1519.69 1206.56C1523.14 1206.56 1525.66 1209.78 1524.85 1213.14L1476.41 1412.65C1475.83 1415.04 1473.7 1416.7 1471.25 1416.7H1055.21C1052.27 1416.7 1049.91 1414.32 1049.91 1411.4V1403.99H1049.89Z" fill="#584738"/>
<path d="M915.451 960.166L918.415 1072.12C918.415 1072.47 918.369 1072.82 918.276 1073.14C915.266 1082.24 871.782 1216.98 914.502 1269C914.942 1269.56 915.197 1270.21 915.197 1270.9C915.173 1277.78 914.942 1287.94 914.757 1294.81C914.687 1297.59 911.237 1298.87 909.408 1296.76C885.791 1269.95 793.822 1146.37 909.779 958.638C911.376 956.045 915.382 957.11 915.451 960.166Z" fill="#584738"/>
<path d="M1423.76 987.369C1422.09 959.75 1418.57 920.81 1371.22 908.239C1313.61 892.959 1235.54 915.763 1152.39 999.917C1005.54 1148.5 1011.31 1312.27 1011.4 1339.77C1011.75 1428.47 1031.27 1478.4 1052.73 1506.81C1071.81 1532.07 1101.52 1546.56 1133.15 1547.3C1240.56 1549.75 1284.72 1429.72 1284.72 1429.72L1266.56 1428.86C1231.58 1509.26 1181.84 1525.58 1147.71 1530.77C1135.07 1532.69 1122.13 1532.21 1109.83 1528.66C1020.99 1502.99 1037.5 1372.39 1039.1 1357.95C1148.5 1366.84 1228.52 1326.07 1305.05 1256.13C1387.38 1180.89 1425.7 1019.83 1423.76 987.392V987.369ZM1402.02 994.986C1396.25 1099.35 1337.46 1182.35 1307.99 1219.27C1304 1224.25 1299.63 1228.88 1294.88 1233.16C1156.09 1358.43 1040.81 1338.04 1040.81 1338.04C1057.29 1195.27 1114.95 1096.85 1177.4 1019.87C1180.85 1015.61 1210.11 987.832 1214.03 983.989C1257.97 940.766 1296.62 927.824 1322.69 924.815C1372.42 919.096 1404.54 949.447 1402.02 994.986Z" fill="#584738"/>
<path d="M1281.27 1389.16H1299.86C1299.86 1389.16 1343.11 1222.91 1267 1165.17C1258.34 1171.86 1253.6 1174.89 1253.6 1174.89C1253.6 1174.89 1318.48 1199.96 1281.27 1389.13V1389.16Z" fill="#584738"/>
<path d="M1068.62 389.516C1068.62 389.516 1078.76 389.377 1092.7 379.654C1094.25 378.566 1095.96 377.686 1097.81 377.223C1101.47 376.274 1107.61 376.806 1109.39 381.807C1110.23 384.145 1109.81 387.687 1108.88 389.979C1106.73 395.258 1101.22 396.878 1092.84 396.462C1091.82 396.415 1091.05 396.323 1089.92 396.161C1083.92 395.35 1071.4 392.943 1068.62 389.516Z" fill="#584738"/>
<path d="M1076.14 407.782C1076.14 407.782 1103.49 402.319 1114.12 414.612C1116.45 417.298 1117.52 421.002 1116.27 424.359C1115.02 427.716 1111.68 430.031 1103.72 426.442C1102.72 426.002 1101.77 425.4 1100.92 424.729C1093.39 418.826 1081.56 408.176 1076.14 407.806V407.782Z" fill="#584738"/>
<path d="M1116.87 409.565C1116.87 409.565 1142.85 424.914 1158.11 416.163C1161.44 414.242 1163.87 410.838 1163.78 406.972C1163.69 403.106 1161.12 399.541 1151.69 400.351C1150.51 400.444 1149.33 400.721 1148.22 401.115C1138.43 404.472 1122.52 411.116 1116.87 409.565Z" fill="#584738"/>
<path d="M1110.97 399.147C1110.97 399.147 1127.64 385.72 1138.36 389.516C1146.62 392.896 1143.91 401.439 1135.79 400.096C1127.66 398.754 1113 398.869 1110.97 399.147Z" fill="#584738"/>
<path d="M1147.83 495.525C1099.62 459.826 1096.24 458.692 1055.51 439.939C1055.09 440.472 1051.78 447.88 1045.14 462.882C1101.43 479.18 1136.69 510.851 1136.69 510.851L1147.83 495.525Z" fill="#584738"/>
<path d="M1375.25 517.773C1400.7 472.073 1403.06 446.329 1397.52 428.572C1391.62 409.634 1373.21 397.55 1353.37 398.29C1283.12 400.976 1226.65 461.933 1191.64 513.259C1153.66 568.937 1146.23 637.788 1167.76 697.749C1134.05 715.691 1101.96 728.471 1075.98 736.574C1004.32 758.914 924.69 748.797 865.531 732.406C822.881 720.599 785.093 694.971 759.392 658.971C723.294 608.409 729.731 564.33 744.388 532.335C755.664 507.702 774.766 492.006 797.11 477.12C799.333 475.638 801.81 474.573 804.242 473.485C834.481 460.057 845.502 457.14 873.473 453.205C871.644 447 870 443.319 865.207 430.007C754.113 454.964 724.452 509.045 715.051 559.815C711.208 580.582 711.254 601.973 716.116 622.531C736.654 709.718 819.5 735.833 866.48 750.927C886.995 757.525 907.973 762.572 929.321 765.512C1043.31 781.255 1119.83 741.829 1174.27 713.723C1181.43 729.281 1190.64 744.051 1201.87 757.641C1117.5 773.314 1035.78 824.872 1017.49 836.956C1015.11 838.531 1013.7 841.17 1013.72 844.041C1013.76 851.75 1013.88 868.326 1014.34 886.314C1014.41 889.301 1017.98 890.806 1020.18 888.792C1104.6 811.351 1170.15 782.204 1217.55 774.541C1217.8 774.796 1218.06 775.051 1218.31 775.305C1221.6 778.431 1224.63 781.093 1227.32 783.315C1275.94 821.584 1312.08 810.611 1324.89 799.868C1326.74 798.294 1327.9 796.002 1327.88 793.571C1327.74 776.995 1310.49 764.702 1281.31 756.345C1279.9 755.951 1278.49 755.534 1277.03 755.303C1258.2 752.339 1238.55 752.571 1218.8 755.048C1205.81 738.819 1197.26 721.896 1192.26 704.579C1196.59 702.426 1200.78 700.412 1204.81 698.583C1266.22 670.917 1332.81 593.94 1375.2 517.842V517.796L1375.25 517.773ZM1309.51 791.928C1289.46 795.516 1268.81 790.747 1240.7 772.342C1279.51 771.393 1302.27 785.445 1309.51 791.928ZM1216.11 550.647C1262.03 467.119 1301.2 433.411 1330.35 423.247C1359.27 413.177 1386.9 440.865 1377.22 469.92C1343.3 571.599 1264.06 641.863 1188.32 686.266C1181.42 640.751 1196.06 593.546 1216.11 550.624V550.647Z" fill="#584738"/>
<path d="M1047.59 394.609L998.459 338.607H992.023L1006.75 377.362L983.201 338.63L937.888 338.7L911.284 394.494L928.742 338.723H923.648L877.733 394.494L1047.59 394.609Z" fill="#584738"/>
<path d="M911.399 401.671L874.144 401.786L904.569 480.5H929.9L911.399 401.671Z" fill="#584738"/>
<path d="M1009.13 401.346L911.469 401.671L939.624 480.5H980.862L1009.13 401.346Z" fill="#584738"/>
<path d="M1049.21 401.393C1049.21 401.393 1049.24 401.254 1049.26 401.208L1009.16 401.346L990.587 480.523H1018.12L1049.21 401.416V401.393Z" fill="#584738"/>
</svg>
