<svg width="387" height="379" viewBox="0 0 387 379" fill="none" xmlns="http://www.w3.org/2000/svg">
<path d="M9.58514 191.821C14.7041 185.257 22.7837 184.022 30.5366 186.553C34.0206 187.691 39.2327 191.573 39.1283 195.635C39.0596 198.408 36.7208 200.034 34.085 199.428C29.1102 198.276 30.5648 188.71 23.1344 188.205C10.2609 187.328 5.03868 203.815 6.62391 214.219C10.6408 240.615 46.2076 245.201 65.3633 233.061C86.0246 219.963 90.4389 193.048 90.1663 170.425C89.7858 138.95 82.0065 109.905 72.6063 80.1503C66.724 61.5224 57.3308 42.9688 59.1875 22.8281C60.2114 11.7403 68.8552 0.433994 80.9369 1.6742C91.8835 2.80588 99.6418 15.9897 91.6538 24.9387C86.8881 30.2768 77.0551 28.6567 77.1944 21.1626C77.2475 18.4659 80.3995 14.5829 81.0625 17.5106C81.3084 18.6119 78.7943 20.6365 80.472 23.4689C83.5867 28.726 91.085 24.0105 92.057 18.9832C94.1655 8.08606 80.5153 3.78705 72.0389 7.57909C56.284 14.6281 61.7059 39.2865 65.6546 52.2467C75.0184 83.0129 86.8776 111.664 90.7741 144.084C94.5007 175.106 95.8132 221.089 64.2542 238.64C50.097 246.509 28.1362 246.65 15.2138 236.146C2.88404 226.12 -0.352933 204.562 9.58498 191.828L9.58514 191.821Z" fill="url(#paint0_linear_418_4840)"/>
<path d="M38.462 370.275C29.1311 362.306 24.448 346.507 23.5558 334.572C22.3151 318.045 28.6844 300.502 37.4789 286.792C38.0464 285.91 46.114 274.32 46.6611 274.977L39.7229 286.308C28.92 305.486 24.2034 331.653 32.7754 352.511C39.7815 369.569 59.3152 378.75 75.5536 367.433C86.5718 359.751 87.298 342.727 74.7693 336.338C68.5015 333.146 58.0017 334.993 58.6621 343.635C59.1491 350.103 66.0215 345.152 66.1191 350.418C66.2056 354.942 60.6287 353.423 58.2796 351.464C49.4966 344.118 56.4274 330.942 67.374 330.52C86.7407 329.766 94.2568 354.748 82.456 368.294C71.3171 381.077 50.9777 380.978 38.4618 370.282L38.462 370.275Z" fill="url(#paint1_linear_418_4840)"/>
<path d="M33.4293 144.865C37.9269 140.353 48.27 141.492 46.5521 148.868C45.1413 154.912 36.7475 148.774 35.2637 154.047C33.6663 159.747 40.7127 165.972 45.8759 166.76C56.2303 168.329 64.3445 161.804 68.8051 153.039C79.5326 131.952 73.0969 102.992 66.7903 81.3098C60.9147 61.1355 46.9848 29.8652 59.6842 10.2297C61.2644 7.78894 63.6738 4.5483 66.5416 3.77302C61.3475 8.41498 58.2225 14.5109 57.2009 21.4514C54.2355 41.5466 64.9098 61.7447 70.612 80.3616C77.4716 102.75 84.0918 137.748 71.2568 158.795C63.5831 171.385 46.025 177.811 34.2035 166.763C28.612 161.541 27.9882 150.32 33.4294 144.858L33.4293 144.865Z" fill="url(#paint2_linear_418_4840)"/>
<path d="M78.3577 306.048C71.3833 313.085 58.45 313.649 52.0626 305.552C42.9029 293.946 48.783 276.26 56.0768 265.159C57.1466 263.526 58.6686 262.138 59.4434 260.359C59.8955 260.299 60.333 260.275 60.0978 260.873C59.6565 262 58.2494 263.522 57.6071 264.646C51.9701 274.535 46.5369 292.085 55.0481 301.672C60.3117 307.602 70.4764 307.1 75.2757 300.875C78.4755 296.715 78.9206 288.569 72.108 288.348C71.1654 288.32 70.3786 288.767 69.3897 288.641C64.2517 287.965 65.5458 279.068 72.3365 279.337C85.2596 279.854 86.2896 298.055 78.3577 306.048Z" fill="url(#paint3_linear_418_4840)"/>
<path d="M72.2257 224.489C64.1666 233.208 49.5006 237.146 38.5662 231.729C32.1592 228.555 26.792 220.737 31.0256 213.757C32.761 210.89 37.0489 208.315 39.1403 212.19C40.6989 215.076 38.6532 215.689 37.6477 217.858C35.4617 222.588 39.7902 227.22 44.0401 228.847C64.8907 236.816 79.9234 213.314 84.286 196.191C85.9351 189.722 86.56 182.842 87.2478 176.255C87.3982 174.795 87.2595 173.238 87.3481 171.756C87.3713 171.333 87.1134 170.461 87.7146 170.557C89.1505 188.594 84.8122 210.857 72.2118 224.489L72.2257 224.489Z" fill="url(#paint4_linear_418_4840)"/>
<path d="M92.127 205.651C89.4907 220.004 81.6153 234.483 72.0577 245.401C60.4222 258.687 34.6648 273.274 17.9612 260.966C12.7071 257.097 10.8669 247.554 15.5826 242.589C17.9973 240.049 22.0246 241.082 21.7685 244.794C21.4811 248.977 13.1952 250.13 18.3721 256.841C25.0589 265.507 42.9042 261.757 51.5001 257.892C68.0054 250.471 82.4822 230.438 88.989 213.883C89.8788 211.614 90.4296 208.991 91.3798 206.813C91.5626 206.387 91.4592 205.74 92.127 205.651Z" fill="url(#paint5_linear_418_4840)"/>
<path d="M81.1266 125.371C81.5998 125.298 81.6397 126 81.7016 126.334C85.0429 144.143 80.3943 173.48 60.8667 180.521C57.7344 181.651 52.6778 181.996 53.311 177.232C53.6857 174.424 60.3518 172.818 62.8068 171.576C79.1791 163.278 81.6256 141.882 81.1264 125.378L81.1266 125.371Z" fill="url(#paint6_linear_418_4840)"/>
<path d="M57.6956 261.005C57.6601 261.046 57.1113 261.082 56.8353 261.333C48.7885 268.567 41.4079 272.356 30.2936 272.525C27.5462 272.567 19.3737 272.683 21.4636 267.91C22.0919 266.481 25.6087 266.768 26.9296 266.936C28.5617 267.146 30.569 267.946 32.4524 268.085C41.6476 268.762 50.0548 265.274 57.5446 260.315L57.6958 260.998L57.6956 261.005Z" fill="url(#paint7_linear_418_4840)"/>
<path d="M201.379 5.84127C194.712 10.8264 193.314 18.8794 195.687 26.6819C196.756 30.1882 200.531 35.4778 204.595 35.4556C207.368 35.443 209.041 33.1375 208.488 30.49C207.438 25.4929 197.844 26.7537 197.489 19.3146C196.873 6.426 213.463 1.53839 223.832 3.33377C250.141 7.88384 254.007 43.5361 241.482 62.4423C227.968 82.8344 200.969 86.7033 178.357 85.9731C146.896 84.9559 118.014 76.5906 88.4559 66.5904C69.9508 60.3325 51.591 50.5658 31.4168 52.0147C20.3106 52.8141 8.83176 61.2274 9.82729 73.3317C10.7373 84.299 23.7614 92.3223 32.8702 84.5171C38.3037 79.8603 36.8828 69.9965 29.3874 69.9842C26.6902 69.9828 22.7443 73.0556 25.6579 73.7776C26.754 74.0458 28.8291 71.5731 31.6269 73.3078C36.8199 76.5283 31.9538 83.9296 26.9078 84.7997C15.9702 86.6873 11.9482 72.9529 15.911 64.5549C23.2773 48.9459 47.821 54.8655 60.6986 59.0756C91.2691 69.0599 119.674 81.4963 152.009 86.0479C182.949 90.4013 228.897 92.6437 247.082 61.4463C255.235 47.4512 255.821 25.4978 245.581 12.3655C235.807 -0.164573 214.318 -3.83701 201.386 5.84126L201.379 5.84127Z" fill="url(#paint8_linear_418_4840)"/>
<path d="M379.212 38.3228C371.434 28.8326 355.732 23.8309 343.818 22.6974C327.319 21.1226 309.651 27.1357 295.766 35.6511C294.873 36.2007 283.122 44.0321 283.768 44.5924L295.237 37.8848C314.63 27.4722 340.886 23.2859 361.567 32.2781C378.48 39.6279 387.264 59.3433 375.62 75.3494C367.717 86.21 350.682 86.5916 344.547 73.9362C341.483 67.6051 343.542 57.1448 352.169 57.9799C358.626 58.5977 353.536 65.3685 358.799 65.5727C363.321 65.7506 361.915 60.1441 360.004 57.7559C352.837 48.826 339.524 55.4889 338.881 66.4247C337.735 85.7722 362.56 93.7922 376.341 82.2678C389.348 71.3898 389.659 51.0526 379.219 38.3228L379.212 38.3228Z" fill="url(#paint9_linear_418_4840)"/>
<path d="M153.951 28.7311C149.349 33.1365 150.278 43.5005 157.687 41.9322C163.758 40.644 157.792 32.1277 163.093 30.7509C168.825 29.2692 174.906 36.4401 175.589 41.6182C176.949 52.0021 170.26 59.9827 161.408 64.2651C140.108 74.5637 111.284 67.5435 89.7337 60.7995C69.6823 54.517 38.7003 39.9573 18.8118 52.2569C16.3396 53.7874 13.0509 56.1308 12.2177 58.9823C16.9638 53.8832 23.1218 50.8821 30.0814 50.0012C50.2325 47.4429 70.2105 58.5237 88.7083 64.6013C110.953 71.9124 145.81 79.2392 167.113 66.8327C179.855 59.4152 186.636 41.9907 175.829 29.9482C170.721 24.2522 159.514 23.4015 153.944 28.7311L153.951 28.7311Z" fill="url(#paint10_linear_418_4840)"/>
<path d="M314.192 76.911C321.368 70.0804 322.194 57.1612 314.228 50.6112C302.81 41.2186 285.008 46.7397 273.762 53.8074C272.107 54.844 270.689 56.3376 268.895 57.0763C268.826 57.5271 268.792 57.964 269.395 57.7409C270.531 57.3225 272.082 55.9465 273.218 55.327C283.219 49.8913 300.875 44.8143 310.289 53.5176C316.11 58.9001 315.403 69.0526 309.082 73.725C304.859 76.84 296.705 77.1202 296.622 70.3045C296.613 69.3615 297.076 68.584 296.97 67.5927C296.398 62.4421 287.476 63.5559 287.608 70.3507C287.863 83.2816 306.04 84.6796 314.192 76.911Z" fill="url(#paint11_linear_418_4840)"/>
<path d="M232.774 69.1305C241.654 61.2494 245.888 46.666 240.693 35.6243C237.649 29.1545 229.942 23.6302 222.878 27.7217C219.976 29.3987 217.315 33.6337 221.147 35.8031C224 37.4197 224.655 35.3868 226.844 34.4254C231.617 32.3355 236.16 36.7569 237.702 41.0388C245.247 62.0464 221.445 76.6005 204.237 80.6158C197.737 82.1337 190.845 82.6193 184.246 83.1737C182.783 83.2946 181.229 83.1244 179.746 83.1829C179.323 83.1977 178.455 82.9221 178.54 83.5252C196.544 85.3257 218.89 81.4386 232.774 69.1166L232.774 69.1305Z" fill="url(#paint12_linear_418_4840)"/>
<path d="M213.537 88.646C227.941 86.3006 242.576 78.7198 253.686 69.385C267.204 58.0206 282.309 32.5637 270.341 15.6144C266.579 10.2832 257.076 8.25025 252.017 12.8646C249.428 15.2274 250.379 19.2747 254.096 19.0938C258.283 18.8911 259.604 10.6303 266.209 15.9418C274.738 22.8026 270.628 40.5683 266.589 49.0843C258.836 65.4361 238.514 79.5047 221.831 85.6752C219.544 86.5189 216.911 87.0166 214.714 87.9225C214.285 88.0967 213.64 87.9801 213.537 88.646Z" fill="url(#paint13_linear_418_4840)"/>
<path d="M133.496 76.0247C133.414 76.4964 134.114 76.5504 134.447 76.6191C152.184 80.32 181.61 76.2658 189.045 56.8847C190.238 53.7759 190.685 48.7272 185.909 49.264C183.094 49.5818 181.354 56.214 180.062 58.6435C171.435 74.8445 149.993 76.8576 133.503 76.0247L133.496 76.0247Z" fill="url(#paint14_linear_418_4840)"/>
<path d="M269.576 55.3423C269.618 55.3076 269.665 54.7597 269.921 54.4888C277.317 46.59 281.254 39.2876 281.647 28.179C281.746 25.433 282.027 17.2645 277.212 19.2574C275.771 19.8567 275.987 23.3786 276.128 24.7026C276.305 26.3386 277.065 28.3617 277.166 30.2475C277.656 39.4545 273.998 47.7894 268.889 55.1773L269.569 55.3424L269.576 55.3423Z" fill="url(#paint15_linear_418_4840)"/>
<defs>
<linearGradient id="paint0_linear_418_4840" x1="92.6175" y1="254.733" x2="68.4141" y2="13.815" gradientUnits="userSpaceOnUse">
<stop stop-color="#89765B"/>
<stop offset="1" stop-color="#B59E7D"/>
</linearGradient>
<linearGradient id="paint1_linear_418_4840" x1="88.7195" y1="382.665" x2="83.8057" y2="280.018" gradientUnits="userSpaceOnUse">
<stop stop-color="#89765B"/>
<stop offset="1" stop-color="#B59E7D"/>
</linearGradient>
<linearGradient id="paint2_linear_418_4840" x1="78.3698" y1="179.529" x2="56.2993" y2="13.6948" gradientUnits="userSpaceOnUse">
<stop stop-color="#89765B"/>
<stop offset="1" stop-color="#B59E7D"/>
</linearGradient>
<linearGradient id="paint3_linear_418_4840" x1="83.6401" y1="313.836" x2="81.5676" y2="262.869" gradientUnits="userSpaceOnUse">
<stop stop-color="#89765B"/>
<stop offset="1" stop-color="#B59E7D"/>
</linearGradient>
<linearGradient id="paint4_linear_418_4840" x1="87.7906" y1="237.515" x2="86.0111" y2="173.015" gradientUnits="userSpaceOnUse">
<stop stop-color="#89765B"/>
<stop offset="1" stop-color="#B59E7D"/>
</linearGradient>
<linearGradient id="paint5_linear_418_4840" x1="92.2503" y1="269.272" x2="91.4793" y2="207.935" gradientUnits="userSpaceOnUse">
<stop stop-color="#89765B"/>
<stop offset="1" stop-color="#B59E7D"/>
</linearGradient>
<linearGradient id="paint6_linear_418_4840" x1="82.2432" y1="183.941" x2="78.5633" y2="127.788" gradientUnits="userSpaceOnUse">
<stop stop-color="#89765B"/>
<stop offset="1" stop-color="#B59E7D"/>
</linearGradient>
<linearGradient id="paint7_linear_418_4840" x1="58.1296" y1="273.678" x2="58.2139" y2="260.8" gradientUnits="userSpaceOnUse">
<stop stop-color="#89765B"/>
<stop offset="1" stop-color="#B59E7D"/>
</linearGradient>
<linearGradient id="paint8_linear_418_4840" x1="262.598" y1="90.1293" x2="22.2189" y2="61.0571" gradientUnits="userSpaceOnUse">
<stop stop-color="#89765B"/>
<stop offset="1" stop-color="#B59E7D"/>
</linearGradient>
<linearGradient id="paint9_linear_418_4840" x1="390.582" y1="88.8207" x2="288.056" y2="81.8314" gradientUnits="userSpaceOnUse">
<stop stop-color="#89765B"/>
<stop offset="1" stop-color="#B59E7D"/>
</linearGradient>
<linearGradient id="paint10_linear_418_4840" x1="187.698" y1="74.3637" x2="22.3447" y2="48.9428" gradientUnits="userSpaceOnUse">
<stop stop-color="#89765B"/>
<stop offset="1" stop-color="#B59E7D"/>
</linearGradient>
<linearGradient id="paint11_linear_418_4840" x1="321.871" y1="82.3499" x2="270.957" y2="79.2467" gradientUnits="userSpaceOnUse">
<stop stop-color="#89765B"/>
<stop offset="1" stop-color="#B59E7D"/>
</linearGradient>
<linearGradient id="paint12_linear_418_4840" x1="245.482" y1="84.9557" x2="181.032" y2="81.8717" gradientUnits="userSpaceOnUse">
<stop stop-color="#89765B"/>
<stop offset="1" stop-color="#B59E7D"/>
</linearGradient>
<linearGradient id="paint13_linear_418_4840" x1="277.143" y1="90.0564" x2="215.834" y2="88.0447" gradientUnits="userSpaceOnUse">
<stop stop-color="#89765B"/>
<stop offset="1" stop-color="#B59E7D"/>
</linearGradient>
<linearGradient id="paint14_linear_418_4840" x1="192.032" y1="78.3259" x2="135.964" y2="73.5108" gradientUnits="userSpaceOnUse">
<stop stop-color="#89765B"/>
<stop offset="1" stop-color="#B59E7D"/>
</linearGradient>
<linearGradient id="paint15_linear_418_4840" x1="282.237" y1="56.0326" x2="269.36" y2="55.8564" gradientUnits="userSpaceOnUse">
<stop stop-color="#89765B"/>
<stop offset="1" stop-color="#B59E7D"/>
</linearGradient>
</defs>
</svg>
