<svg width="1212" height="125" viewBox="0 0 1212 125" fill="none" xmlns="http://www.w3.org/2000/svg">
<path d="M0.0163774 89.8424C12.5451 50.4806 55.2572 51.3333 87.8973 55.5009C128.898 60.7387 167.016 78.2357 205.814 91.5564L182.829 71.6493C169.121 57.5891 157.788 16.6003 180.47 7.08181C208.353 -4.61185 219.137 36.055 191.853 36.3421C186.882 36.3943 187.283 35.82 191.763 34.5149C218.941 26.58 188.029 -2.98483 177.007 22.4559C168.638 41.7713 186.481 67.2207 200.107 79.4364C276.098 147.536 430.618 93.0703 518.344 73.111C526.524 71.2491 534.909 69.0565 543.352 69.1C524.903 52.9951 495.767 59.9121 473.887 64.4713C430.233 73.5634 323.551 117.745 301.679 55.7706C280.765 -3.48947 374.411 -13.269 363.496 41.9366C359.942 59.9208 331.167 68.839 325.459 49.8194C319.432 29.7383 347.708 27.7023 343.884 41.954L339.642 46.3913C337.48 47.0091 334.925 46.4609 332.919 45.5039C330.372 44.2858 331.945 41.0578 329.316 41.4668C330.143 63.2271 357.87 52.36 358.361 35.1327C359.172 6.8556 321.594 2.33996 307.461 22.8561C292.361 44.773 309.737 75.2601 332.231 82.4468C395.079 102.51 484.279 34.6716 540.035 57.9023C544.662 59.8251 552.622 66.6203 554.439 67.125C558.059 68.1429 571.308 66.4898 576.975 67.5165C589.683 69.8222 603.039 77.8007 606.732 91.5651C613.455 77.8007 623.65 70.2311 638.16 67.5339C644.351 66.3854 654.349 68.0646 659.033 67.1163C662.661 66.3854 667.001 61.0693 671.153 58.9551C721.12 33.4361 816.281 98.6735 877.68 83.8911C898.667 78.836 914.954 58.9116 912.015 35.5677C908.272 5.85502 860.794 0.034287 856.553 30.678C853.613 51.8988 882.494 64.8367 885.811 41.4668C870.85 58.0502 862.473 26.9541 882.617 33.6101C896.8 38.2997 888.595 66.7595 866.502 59.1465C850.509 53.6303 845.735 34.4366 854.203 19.5063C871.522 -11.0416 927.082 9.20477 913.439 54.0305C893.86 118.389 784.271 73.781 741.272 64.4365C720.187 59.8512 694.048 54.9615 674.125 65.4979C672.373 66.4289 671.013 64.6018 671.783 69.1C713.406 75.1905 753.989 88.8331 795.244 97.6381C861.941 111.872 965.233 130.387 1019.18 75.147C1030.72 63.3315 1049.94 29.6948 1032.96 15.7825C1017.24 2.9142 1005.31 25.4837 1016.62 32.9314C1020.33 35.385 1024.89 33.0097 1025.77 36.2638C1000.98 39.9529 1001.27 4.99366 1024.96 5.03716C1037.24 5.05456 1044.75 12.9635 1046.79 25.4576C1050.89 50.585 1031.81 73.9289 1014.26 88.1022C1032.85 82.76 1050.49 74.3987 1068.98 68.6563C1103.1 58.0415 1168.07 41.345 1197.8 67.4382C1211.97 79.8801 1219.17 107.218 1201.84 119.973C1192.73 126.681 1176.03 127.246 1172.34 114.048C1203.7 133.311 1213.65 91.9392 1189.6 72.589C1142.65 34.8108 1022.66 93.0703 971.448 108.001C921.399 122.592 862.301 115.422 811.703 106.313C762.759 97.4989 714.938 82.6991 665.871 74.4074C653.4 80.8459 658.829 106.93 672.618 107.009C678.875 107.044 684.14 99.3435 680.955 93.1921L671.791 91.5738C671.226 89.4508 675.165 88.546 676.189 88.5895C690.666 89.2072 688.799 110.315 675.771 112.255C655.84 115.24 647.201 90.8342 655.308 74.3204C643.426 74.912 625.534 76.8871 618.352 88.2153C604.071 110.741 632.83 123.757 639.307 106.609C643.033 96.742 630.226 92.644 625.755 101.292L628.965 106.287C624.051 109.045 622.766 101.24 624.846 96.7594C632.052 81.2374 658.321 102.98 638.742 118.259C625.1 128.908 614.364 118.641 605.93 107.139C602.99 127.159 570.456 127.786 569.515 106.313C568.589 85.3093 596.357 88.4938 588.619 105.399C589.593 93.6184 575.361 94.3058 574.592 102.885C573.151 118.972 602.392 119.738 599.256 96.0459C596.971 78.8186 573.372 74.5205 559.819 74.3204C565.65 90.4862 559.189 114.918 539.38 112.29C518.679 109.549 531.184 74.9817 545.014 94.1579C543.458 95.7153 541.763 91.7826 539.159 91.4955C527.916 90.2687 530.594 110.263 544.67 106.034C557.543 102.162 557.486 83.4648 550.517 74.1638C462.759 89.3638 375.877 121.722 285.605 115.849C219.596 111.559 76.8999 29.6774 22.2323 72.5803C-2.71864 92.1654 8.40978 133.05 39.5022 114.048C35.4242 128.291 13.2247 126.724 5.46185 116.971C3.25091 114.195 3.26728 109.41 0 107.139V89.8598L0.0163774 89.8424Z" fill="url(#paint0_linear_536_3267)"/>
<path d="M609.222 0C613.628 16.4964 607.666 33.5584 606.749 50.1244C605.529 50.1592 604.628 45.2695 604.432 43.9122C603.195 35.4029 601.033 19.1936 600.911 11.1455C600.845 6.65599 602.172 3.66297 604.276 0H609.214L609.222 0Z" fill="url(#paint1_linear_536_3267)"/>
<path d="M287.333 103.668C268.589 101.998 234.893 93.48 228.53 72.0851C226.057 63.7847 228.964 51.5864 238.16 50.5423C253.064 48.8544 247.119 72.3549 233.845 60.4698C234.467 85.1274 263.062 91.9139 281.519 97.6824L326.033 103.668C313.455 102.859 299.772 104.773 287.341 103.668H287.333Z" fill="url(#paint2_linear_536_3267)"/>
<path d="M889.135 103.668L931.962 97.638C951.377 92.8266 976.958 85.9705 981.339 62.2177L970.874 63.8012C960.229 48.8535 983.714 45.0774 986.179 61.4434C988.971 79.9757 973.527 90.7645 958.747 96.3764C952.712 98.6647 933.501 103.676 927.834 103.676H889.143L889.135 103.668Z" fill="url(#paint3_linear_536_3267)"/>
<path d="M597.684 53.5609C592.738 49.6978 588.086 45.5824 582.371 42.8591C576.655 40.1358 552.597 36.3337 554.898 28.5292C557.084 21.1249 576.663 31.4439 580.733 34.2194C583.37 36.0204 599.78 51.1596 597.684 53.5609Z" fill="url(#paint4_linear_536_3267)"/>
<path d="M656.568 34.1668C654.136 36.1244 635.785 40.3181 629.791 43.1719C624.804 45.5385 620.799 49.4973 615.829 51.8291C614.06 49.9671 622.478 42.0321 624.026 40.5791C629.946 35.0107 646.201 24.0305 654.127 26.1709C657.747 27.1453 659.458 31.835 656.568 34.1668Z" fill="url(#paint5_linear_536_3267)"/>
<path d="M635.54 8.67529C641.15 13.043 624.469 27.4948 621.71 31.2535C616.87 37.8312 614.094 45.6008 609.238 51.8392C612.768 36.587 617.714 10.4328 635.54 8.67529Z" fill="url(#paint6_linear_536_3267)"/>
<path d="M602.621 51.821L591.787 32.9754C589.486 28.5293 572.314 12.903 576.302 8.63965C594.195 8.74406 599.927 36.969 602.621 51.821Z" fill="url(#paint7_linear_536_3267)"/>
<path d="M602.138 57.337C620.768 51.3249 616.69 82.4645 601.393 74.747C594.015 71.0318 595.432 59.5035 602.138 57.337Z" fill="url(#paint8_linear_536_3267)"/>
<defs>
<linearGradient id="paint0_linear_536_3267" x1="0.5" y1="28.4494" x2="1225.79" y2="135.097" gradientUnits="userSpaceOnUse">
<stop stop-color="#B59E7D"/>
<stop offset="1" stop-color="#89765B"/>
</linearGradient>
<linearGradient id="paint1_linear_536_3267" x1="600.912" y1="9.85492" x2="611.016" y2="9.87211" gradientUnits="userSpaceOnUse">
<stop stop-color="#B59E7D"/>
<stop offset="1" stop-color="#89765B"/>
</linearGradient>
<linearGradient id="paint2_linear_536_3267" x1="227.729" y1="60.9868" x2="327.88" y2="62.5673" gradientUnits="userSpaceOnUse">
<stop stop-color="#B59E7D"/>
<stop offset="1" stop-color="#89765B"/>
</linearGradient>
<linearGradient id="paint3_linear_536_3267" x1="889.175" y1="61.1703" x2="988.337" y2="62.739" gradientUnits="userSpaceOnUse">
<stop stop-color="#B59E7D"/>
<stop offset="1" stop-color="#89765B"/>
</linearGradient>
<linearGradient id="paint4_linear_536_3267" x1="554.761" y1="31.341" x2="598.681" y2="31.9297" gradientUnits="userSpaceOnUse">
<stop stop-color="#B59E7D"/>
<stop offset="1" stop-color="#89765B"/>
</linearGradient>
<linearGradient id="paint5_linear_536_3267" x1="615.603" y1="30.9962" x2="658.826" y2="31.6043" gradientUnits="userSpaceOnUse">
<stop stop-color="#B59E7D"/>
<stop offset="1" stop-color="#89765B"/>
</linearGradient>
<linearGradient id="paint6_linear_536_3267" x1="609.25" y1="17.1617" x2="637.207" y2="17.3145" gradientUnits="userSpaceOnUse">
<stop stop-color="#B59E7D"/>
<stop offset="1" stop-color="#89765B"/>
</linearGradient>
<linearGradient id="paint7_linear_536_3267" x1="575.715" y1="17.1295" x2="603.132" y2="17.2764" gradientUnits="userSpaceOnUse">
<stop stop-color="#B59E7D"/>
<stop offset="1" stop-color="#89765B"/>
</linearGradient>
<linearGradient id="paint8_linear_536_3267" x1="596.461" y1="60.3799" x2="614.895" y2="60.5275" gradientUnits="userSpaceOnUse">
<stop stop-color="#B59E7D"/>
<stop offset="1" stop-color="#89765B"/>
</linearGradient>
</defs>
</svg>
