<svg width="140" height="105" viewBox="0 0 140 105" fill="none" xmlns="http://www.w3.org/2000/svg">
<path d="M64.0746 29.2741C64.0746 29.4327 63.9502 29.564 63.7916 29.5708C62.8113 29.6118 59.6135 30.0575 59.4398 34.0757C59.2662 38.0938 59.3865 42.056 59.4275 43.1661C59.4343 43.3343 59.299 43.4724 59.1308 43.4724H55.2945C55.1304 43.4724 54.9978 43.3397 54.9978 43.1757V34.0251C54.9978 34.0251 54.8994 29.5899 49.957 29.5626C49.7847 29.5626 49.648 29.4136 49.6631 29.2413C49.6767 29.0882 49.8052 28.9692 49.9597 28.9692H63.7793C63.9433 28.9692 64.0759 29.1019 64.0759 29.2659V29.2741H64.0746Z" fill="white"/>
<path d="M55.2166 45.5669H59.0652C59.2293 45.5669 59.3619 45.6995 59.3619 45.8636L59.3113 83.3683C59.3113 83.5323 59.1787 83.6649 59.0146 83.6649H50.3918C50.2373 83.6649 50.1088 83.546 50.0964 83.3929C50.0814 83.2179 50.2209 83.0675 50.3972 83.0716C51.5115 83.0948 55.0648 82.8091 55.0211 78.2003C54.9732 73.072 54.9254 48.8263 54.9199 45.8636C54.9199 45.6995 55.0525 45.5669 55.2166 45.5669Z" fill="white"/>
<path d="M61.9924 82.9128C61.9924 82.7364 62.1359 82.5956 62.3123 82.5997C64.4752 82.6462 76.9398 82.8882 78.8963 82.2347C81.0223 81.5265 86.558 78.8112 89.4414 71.4544C89.4879 71.3341 89.6041 71.2534 89.7326 71.2534C89.9363 71.2534 90.0853 71.4435 90.0375 71.6417L87.1773 83.4241C87.1432 83.5649 87.0174 83.6634 86.8724 83.6634H62.3068C62.1332 83.6634 61.9937 83.5226 61.9937 83.3503V82.9128H61.9924Z" fill="white"/>
<path d="M54.0545 56.7025L54.2295 63.3143C54.2295 63.3348 54.2267 63.3553 54.2213 63.3744C54.0435 63.9117 51.4759 71.8688 53.9984 74.9408C54.0244 74.9736 54.0394 75.0119 54.0394 75.0529C54.038 75.459 54.0244 76.0592 54.0134 76.4652C54.0093 76.6293 53.8056 76.7045 53.6976 76.5801C52.3031 74.9969 46.8726 67.6988 53.7195 56.6123C53.8138 56.4592 54.0504 56.5221 54.0545 56.7025Z" fill="white"/>
<path d="M84.0684 58.3089C83.9699 56.6778 83.7621 54.3782 80.9662 53.6359C77.5647 52.7335 72.9545 54.0802 68.0449 59.0499C59.3742 67.8245 59.7147 77.496 59.7201 79.1202C59.7406 84.3579 60.8932 87.3069 62.1606 88.9845C63.2871 90.4761 65.0412 91.3319 66.9088 91.3757C73.2512 91.5206 75.8584 84.4318 75.8584 84.4318L74.7865 84.3812C72.7207 89.1294 69.784 90.0933 67.7688 90.3995C67.0223 90.513 66.258 90.4843 65.532 90.2751C60.2861 88.7589 61.2609 81.0466 61.3553 80.1935C67.8152 80.7185 72.5402 78.3109 77.0588 74.1806C81.9205 69.7372 84.1832 60.2257 84.0684 58.3103V58.3089ZM82.7846 58.7587C82.4441 64.922 78.9729 69.8234 77.2324 72.004C76.9973 72.298 76.7389 72.5714 76.4586 72.8243C68.2637 80.2222 61.4565 79.0177 61.4565 79.0177C62.4299 70.5863 65.8342 64.7743 69.5215 60.2284C69.7252 59.9769 71.4533 58.3362 71.6844 58.1093C74.2793 55.5568 76.5611 54.7925 78.1006 54.6148C81.0373 54.2771 82.9336 56.0694 82.7846 58.7587Z" fill="white"/>
<path d="M75.6547 82.0366H76.7525C76.7525 82.0366 79.3064 72.2188 74.8125 68.8091C74.3012 69.2042 74.0209 69.3833 74.0209 69.3833C74.0209 69.3833 77.8517 70.864 75.6547 82.0353V82.0366Z" fill="white"/>
<path d="M52.243 28.4924H61.5153C61.5153 28.4924 61.9842 26.0574 59.7762 24.8584C60.8604 23.4789 61.7805 19.994 57.4137 19.7643C53.0469 19.5346 52.9936 22.8459 54.0846 24.6274C52.9362 25.0621 51.8274 27.5846 52.243 28.4924Z" fill="white"/>
<path d="M62.6227 23.1508C63.2502 23.1508 63.7588 22.7909 63.7588 22.3469C63.7588 21.9029 63.2502 21.543 62.6227 21.543C61.9952 21.543 61.4866 21.9029 61.4866 22.3469C61.4866 22.7909 61.9952 23.1508 62.6227 23.1508Z" fill="white"/>
<path d="M66.0871 24.12C66.63 24.12 67.0701 23.8397 67.0701 23.4938C67.0701 23.148 66.63 22.8677 66.0871 22.8677C65.5442 22.8677 65.1041 23.148 65.1041 23.4938C65.1041 23.8397 65.5442 24.12 66.0871 24.12Z" fill="white"/>
<path d="M64.7172 21.3394C65.2458 21.3394 65.6743 20.9905 65.6743 20.5601C65.6743 20.1297 65.2458 19.7808 64.7172 19.7808C64.1887 19.7808 63.7602 20.1297 63.7602 20.5601C63.7602 20.9905 64.1887 21.3394 64.7172 21.3394Z" fill="white"/>
<path d="M67.2793 22.6285C67.7233 22.6285 68.0832 22.3855 68.0832 22.0857C68.0832 21.786 67.7233 21.543 67.2793 21.543C66.8353 21.543 66.4754 21.786 66.4754 22.0857C66.4754 22.3855 66.8353 22.6285 67.2793 22.6285Z" fill="white"/>
<path d="M69.5393 23.9025C69.864 23.9025 70.1272 23.7195 70.1272 23.4937C70.1272 23.268 69.864 23.085 69.5393 23.085C69.2146 23.085 68.9514 23.268 68.9514 23.4937C68.9514 23.7195 69.2146 23.9025 69.5393 23.9025Z" fill="white"/>
<path d="M68.9514 21.1604C69.4309 21.1604 69.8196 20.8916 69.8196 20.5602C69.8196 20.2287 69.4309 19.96 68.9514 19.96C68.4719 19.96 68.0833 20.2287 68.0833 20.5602C68.0833 20.8916 68.4719 21.1604 68.9514 21.1604Z" fill="white"/>
<path d="M67.5213 28.4075C64.549 26.3417 62.3 25.2425 60.2574 24.6587C60.2328 24.6901 60.1562 24.7886 60.133 24.8446C61.1297 25.2903 61.4783 26.2733 61.5316 26.4415C64.7473 27.631 66.8637 29.3126 66.8637 29.3126L67.5213 28.4075Z" fill="white"/>
<path d="M54.0367 24.6271C54.0367 24.6271 53.5336 24.9156 53.0988 25.4775C56.1066 24.988 58.9367 25.524 61.2404 26.3375C61.2281 26.3333 61.2158 26.3279 61.2035 26.3238C60.7605 25.3791 59.7762 24.8595 59.7762 24.8595L59.973 24.582C58.4842 24.1869 57.0924 24.0597 55.5939 24.0201C54.9937 24.005 54.3935 24.0187 53.7961 24.0611L54.0367 24.6285V24.6271Z" fill="white"/>
<path d="M81.4639 30.5526C82.9664 27.8538 83.1058 26.3334 82.7791 25.2848C82.4305 24.1665 81.3436 23.4528 80.1719 23.4965C76.0238 23.6551 72.6892 27.2549 70.6221 30.286C68.3799 33.5741 67.941 37.6401 69.2125 41.1811C67.2219 42.2407 65.3269 42.9954 63.793 43.4739C59.5615 44.7932 54.8598 44.1958 51.3666 43.2278C48.8482 42.5305 46.617 41.017 45.0994 38.8911C42.968 35.9051 43.348 33.302 44.2135 31.4125C44.9107 29.8881 46.0605 28.618 47.4619 27.6993C49.2133 26.5508 50.9756 25.8823 52.6873 25.55C52.876 25.2493 53.1891 24.8583 53.6853 24.5219C53.6607 24.4659 53.509 24.1801 53.4598 24.0858C52.7844 24.1473 52.1144 24.2499 51.4514 24.3989C44.8916 25.8727 43.0377 30.0358 42.4826 33.034C42.2557 34.2604 42.2584 35.5237 42.5455 36.7377C43.7582 41.8866 48.65 43.4288 51.424 44.3202C52.6353 44.7098 53.874 45.0079 55.1346 45.1815C61.8652 46.1112 66.3838 43.7829 69.598 42.1231C70.0205 43.0418 70.5646 43.9141 71.2277 44.7167C66.2457 45.6422 61.4209 48.687 60.3408 49.4006C60.2 49.4936 60.1166 49.6495 60.118 49.819C60.1207 50.2743 60.1275 51.2532 60.1549 52.3155C60.159 52.4918 60.3695 52.5807 60.4994 52.4618C65.4842 47.8885 69.3547 46.1672 72.1533 45.7147C72.1684 45.7297 72.1834 45.7448 72.1984 45.7598C72.3926 45.9444 72.5717 46.1016 72.7303 46.2329C75.6014 48.4928 77.7355 47.8448 78.4916 47.2104C78.601 47.1174 78.6693 46.9821 78.668 46.8385C78.6598 45.8596 77.6412 45.1336 75.9185 44.6401C75.8351 44.6168 75.7518 44.5922 75.6656 44.5786C74.5541 44.4036 73.3933 44.4172 72.2271 44.5635C71.4601 43.6051 70.9557 42.6057 70.6603 41.5831C70.916 41.4559 71.1635 41.337 71.4014 41.229C75.0271 39.5952 78.9592 35.0493 81.4625 30.5553L81.4639 30.5526ZM77.5824 46.7415C76.3984 46.9534 75.1789 46.6717 73.5191 45.5848C75.8105 45.5288 77.1545 46.3586 77.5824 46.7415ZM72.0658 32.4926C74.7769 27.5598 77.0902 25.5692 78.8115 24.969C80.5191 24.3743 82.1502 26.0094 81.5787 27.7252C79.5758 33.7299 74.8973 37.8793 70.4252 40.5016C70.0178 37.8137 70.8818 35.026 72.0658 32.4913V32.4926Z" fill="white"/>
</svg>
