<svg width="729" height="804" viewBox="0 0 729 804" fill="none" xmlns="http://www.w3.org/2000/svg">
<path d="M67.5 222L50.6107 306L43 330L75.9799 368.5L204.348 383H421V246.5L67.5 222Z" fill="#B59E7D"/>
<path d="M711.405 804C716.112 802.559 713.826 796.141 712.789 793.008C708.62 780.384 672.022 732.997 672.579 726.157C693.923 699.293 712.424 668.836 721.434 635.323C744.161 550.754 715.017 449.89 643.032 397.758C634.694 391.724 617.039 384.633 611.448 379.387C608.221 376.351 608.125 372.374 605.301 369.626C598.788 363.323 573.967 351.755 564.419 350.506C569.548 326.736 576.311 302.889 577.867 278.427C584.898 166.822 559.155 90.5926 462.444 30.7353C393.456 -11.9623 327.061 2.0268 250.427 2.79543C211.274 3.19896 150.469 -5.37132 116.138 10.6739C96.7349 19.7438 89.7419 44.782 89.7612 65.1508C89.7803 77.8717 99.0787 84.5396 101.057 92.5526C102.594 98.7786 83.9785 151.91 80.8662 163.69C78.7338 171.703 65.9005 222.855 67.0148 226.276C82.9603 235.96 122.325 246.395 128.799 266.456C130.989 273.22 128.357 284.769 133.525 286.71C180.939 295.28 229.294 296.74 276.996 302.697C305.41 306.252 338.742 309.672 364.024 323.258C366.08 324.373 388.134 337.266 383.85 340.879C373.015 342.685 365.964 334.807 356.032 331.252C347.656 328.235 339.721 326.909 330.999 325.545L127.704 325.429C118.732 345.068 119.52 359.826 92.9886 356.079C66.4576 352.332 61.4435 327.524 51.9146 308.731C51.2422 307.424 51.7609 305.003 48.6486 306.31C43.7498 308.404 36.2765 320.625 32.2805 324.546C17.7374 338.804 -8.17883 354.734 2.52191 379.311C9.03461 394.241 41.7133 402.081 43.5384 409.441C43.9995 424.987 29.5909 450.928 30.4554 464.725C30.9741 472.853 41.0986 476.581 47.6497 479.271C48.1108 485.766 39.6001 485.536 36.0652 489.725C24.9802 502.868 45.9398 512.688 47.6304 522.603C49.321 532.519 41.9055 546.373 42.1168 556.865C42.5394 576.715 57.5243 595.45 77.6195 598.217C115.101 603.367 174.58 586.496 204.05 615.877C211.677 623.486 213.329 626.984 212.868 637.745C212.292 651.388 208.181 690.434 204.78 702.675C203.282 708.074 195.002 715.915 191.428 721.987C177.058 746.545 178.576 776.771 182.149 803.981H270.522L224.53 633.075C275.286 615.262 326.1 596.815 375.57 575.658C399.623 565.378 496.391 523.583 507.226 505.578L538.56 423.488C549.107 428.811 560.596 437.016 573.179 436.651C577.329 436.535 582.593 432.097 585.59 433.961C620.362 484.325 603.783 561.227 573.121 609.862L522.826 539.244C520.962 533.787 512.682 537.745 515.353 542.722L557.868 625.235C560.653 635.189 544.131 645.892 536.562 652.118C470.609 706.403 390.152 748.716 318.646 795.41L314.708 803.962H711.405V804Z" fill="black"/>
</svg>
