<svg width="14" height="15" viewBox="0 0 14 15" fill="none" xmlns="http://www.w3.org/2000/svg">
<path d="M7 1.34108C8.869 1.34108 9.09 1.34808 9.829 1.38208C10.511 1.41308 10.882 1.52708 11.129 1.62308C11.432 1.73508 11.707 1.91408 11.933 2.14708C12.166 2.37308 12.345 2.64708 12.457 2.95208C12.553 3.19808 12.667 3.56908 12.697 4.25208C12.732 4.99008 12.739 5.21108 12.739 7.08008C12.739 8.95008 12.732 9.17008 12.698 9.90908C12.667 10.5911 12.553 10.9621 12.457 11.2091C12.3404 11.5109 12.162 11.785 11.9331 12.0138C11.7042 12.2425 11.4299 12.4207 11.128 12.5371C10.882 12.6331 10.511 12.7471 9.828 12.7781C9.091 12.8121 8.869 12.8181 7 12.8181C5.13 12.8181 4.91 12.8121 4.171 12.7781C3.489 12.7471 3.118 12.6331 2.871 12.5381C2.56714 12.4253 2.29241 12.2459 2.067 12.0131C1.83452 11.7875 1.65547 11.5128 1.543 11.2091C1.447 10.9621 1.333 10.5911 1.302 9.90908C1.268 9.17108 1.262 8.94908 1.262 7.08008C1.262 5.21108 1.268 4.99008 1.302 4.25108C1.333 3.56908 1.447 3.19808 1.543 2.95108C1.655 2.64808 1.834 2.37308 2.067 2.14708C2.293 1.91408 2.567 1.73508 2.872 1.62308C3.118 1.52708 3.489 1.41308 4.172 1.38308C4.91 1.34808 5.131 1.34108 7 1.34108ZM7 0.0800781C5.099 0.0800781 4.86 0.0880779 4.114 0.122078C3.369 0.156078 2.86 0.274078 2.414 0.447078C1.948 0.623078 1.524 0.899078 1.175 1.25508C0.819 1.60508 0.543 2.02808 0.367 2.49508C0.194 2.94008 0.0769998 3.44908 0.0419998 4.19408C0.00799982 4.94008 0 5.17908 0 7.08008C0 8.98108 0.00799982 9.22008 0.0419998 9.96608C0.0759998 10.7111 0.195 11.2201 0.368 11.6661C0.543 12.1321 0.818 12.5561 1.175 12.9061C1.525 13.2611 1.948 13.5361 2.415 13.7121C2.86 13.8851 3.369 14.0041 4.114 14.0381C4.861 14.0721 5.099 14.0801 7 14.0801C8.901 14.0801 9.14 14.0721 9.886 14.0381C10.631 14.0041 11.14 13.8861 11.586 13.7131C12.051 13.5331 12.4733 13.2579 12.8258 12.9053C13.1783 12.5526 13.4532 12.1302 13.633 11.6651C13.805 11.2201 13.923 10.7111 13.958 9.96608C13.992 9.22008 14 8.98108 14 7.08008C14 5.17908 13.992 4.94008 13.958 4.19408C13.924 3.44908 13.806 2.94008 13.633 2.49408C13.4571 2.0269 13.1813 1.60373 12.825 1.25408C12.4753 0.898077 12.0521 0.622672 11.585 0.447078C11.14 0.274078 10.631 0.157078 9.886 0.122078C9.14 0.0880779 8.901 0.0800781 7 0.0800781Z" fill="black"/>
<path d="M7.00003 3.48493C6.04658 3.48493 5.13217 3.86369 4.45798 4.53788C3.78379 5.21207 3.40503 6.12648 3.40503 7.07993C3.40503 8.03338 3.78379 8.94778 4.45798 9.62198C5.13217 10.2962 6.04658 10.6749 7.00003 10.6749C7.95348 10.6749 8.86788 10.2962 9.54208 9.62198C10.2163 8.94778 10.595 8.03338 10.595 7.07993C10.595 6.12648 10.2163 5.21207 9.54208 4.53788C8.86788 3.86369 7.95348 3.48493 7.00003 3.48493ZM7.00003 9.41293C6.68953 9.41936 6.38086 9.36375 6.09212 9.24937C5.80338 9.13499 5.54037 8.96413 5.3185 8.74681C5.09663 8.52949 4.92037 8.27007 4.80004 7.98376C4.6797 7.69745 4.61772 7.39 4.61772 7.07943C4.61772 6.76886 4.6797 6.46141 4.80004 6.1751C4.92037 5.88879 5.09663 5.62937 5.3185 5.41205C5.54037 5.19473 5.80338 5.02387 6.09212 4.90949C6.38086 4.79511 6.68953 4.7395 7.00003 4.74593C7.61055 4.75857 8.1918 5.00997 8.6191 5.44621C9.0464 5.88245 9.28572 6.46878 9.28572 7.07943C9.28572 7.69008 9.0464 8.27641 8.6191 8.71265C8.1918 9.14889 7.61055 9.40029 7.00003 9.41293ZM10.736 4.18293C10.9588 4.18293 11.1725 4.09443 11.33 3.9369C11.4875 3.77937 11.576 3.56571 11.576 3.34293C11.576 3.12015 11.4875 2.90649 11.33 2.74896C11.1725 2.59143 10.9588 2.50293 10.736 2.50293C10.5132 2.50293 10.2996 2.59143 10.1421 2.74896C9.98453 2.90649 9.89603 3.12015 9.89603 3.34293C9.89603 3.56571 9.98453 3.77937 10.1421 3.9369C10.2996 4.09443 10.5132 4.18293 10.736 4.18293Z" fill="black"/>
</svg>
