<svg width="16" height="11" viewBox="0 0 16 11" fill="none" xmlns="http://www.w3.org/2000/svg">
<path fill-rule="evenodd" clip-rule="evenodd" d="M14.25 0.398078C14.94 0.573078 15.482 1.09008 15.666 1.74508C16 2.93408 16 5.41308 16 5.41308C16 5.41308 16 7.89308 15.666 9.08108C15.482 9.73608 14.939 10.2531 14.251 10.4281C13.004 10.7461 8 10.7461 8 10.7461C8 10.7461 2.996 10.7461 1.75 10.4281C1.06 10.2531 0.518 9.73608 0.335 9.08108C2.98023e-08 7.89208 0 5.41308 0 5.41308C0 5.41308 2.98023e-08 2.93308 0.335 1.74508C0.518 1.09008 1.061 0.573078 1.749 0.398078C2.996 0.0800785 8 0.0800781 8 0.0800781C8 0.0800781 13.004 0.0800785 14.25 0.398078ZM10.668 5.41308L6.223 7.69908V3.12708L10.667 5.41308H10.668Z" fill="black"/>
</svg>
