<svg width="12" height="15" viewBox="0 0 12 15" fill="none" xmlns="http://www.w3.org/2000/svg">
<path d="M8.846 0.613078L8.511 0.0800781H6.484V4.87708L6.477 9.56208C6.48 9.59708 6.484 9.63508 6.484 9.67008C6.484 10.8431 5.537 11.8001 4.37 11.8001C4.09133 11.799 3.8156 11.7431 3.55855 11.6355C3.3015 11.5279 3.06816 11.3707 2.87186 11.1729C2.67556 10.9751 2.52013 10.7406 2.41446 10.4827C2.30879 10.2249 2.25495 9.94874 2.256 9.67008C2.256 8.49708 3.202 7.54008 4.37 7.54008C4.611 7.54008 4.846 7.58508 5.064 7.66108V5.32208C4.83475 5.28287 4.60258 5.26313 4.37 5.26308C1.962 5.26708 0 7.24308 0 9.67308C0 12.1031 1.962 14.0801 4.373 14.0801C6.784 14.0801 8.746 12.1031 8.746 9.67308V4.10008C9.62 4.98108 10.75 5.84008 12 6.11608V3.72408C10.642 3.11908 9.292 1.33008 8.846 0.613078Z" fill="black"/>
</svg>
